<svg id="Icono_Lluvia" xmlns="http://www.w3.org/2000/svg" xmlns:xlink="http://www.w3.org/1999/xlink" viewBox="0 0 389.28 352.39"><defs><linearGradient id="Degradado_sin_nombre_13" x1="131.94" y1="314.3" x2="132.66" y2="254.02" gradientUnits="userSpaceOnUse"><stop offset="0.13" stop-color="#d9e7f7" stop-opacity="0.53"/><stop offset="0.22" stop-color="#c3dcf3" stop-opacity="0.63"/><stop offset="0.4" stop-color="#9fcaec" stop-opacity="0.79"/><stop offset="0.58" stop-color="#86bde7" stop-opacity="0.91"/><stop offset="0.73" stop-color="#76b5e4" stop-opacity="0.98"/><stop offset="0.87" stop-color="#71b2e3"/></linearGradient><linearGradient id="Degradado_sin_nombre_13-2" x1="245.11" y1="314.3" x2="245.83" y2="254.02" xlink:href="#Degradado_sin_nombre_13"/><linearGradient id="Degradado_sin_nombre_17" x1="208.81" y1="295.54" x2="208.81" y2="265.49" gradientUnits="userSpaceOnUse"><stop offset="0.13" stop-color="#d9e7f7" stop-opacity="0.96"/><stop offset="0.22" stop-color="#c4dcf3" stop-opacity="0.97"/><stop offset="0.4" stop-color="#a0caec" stop-opacity="0.98"/><stop offset="0.57" stop-color="#86bde7" stop-opacity="0.99"/><stop offset="0.73" stop-color="#76b5e4"/><stop offset="0.87" stop-color="#71b2e3"/></linearGradient><linearGradient id="Degradado_sin_nombre_15" x1="170.38" y1="349.81" x2="170.96" y2="301.05" gradientUnits="userSpaceOnUse"><stop offset="0.13" stop-color="#d9e7f7" stop-opacity="0.1"/><stop offset="0.2" stop-color="#c8dff4" stop-opacity="0.24"/><stop offset="0.32" stop-color="#aed1ef" stop-opacity="0.47"/><stop offset="0.45" stop-color="#98c6eb" stop-opacity="0.66"/><stop offset="0.57" stop-color="#87bde7" stop-opacity="0.81"/><stop offset="0.68" stop-color="#7bb7e5" stop-opacity="0.91"/><stop offset="0.78" stop-color="#74b3e3" stop-opacity="0.98"/><stop offset="0.87" stop-color="#71b2e3"/></linearGradient><linearGradient id="Degradado_sin_nombre_18" x1="207.95" y1="329.16" x2="208.18" y2="309.98" gradientUnits="userSpaceOnUse"><stop offset="0.12" stop-color="#d9e7f7" stop-opacity="0.5"/><stop offset="0.36" stop-color="#a6cded" stop-opacity="0.56"/><stop offset="0.63" stop-color="#7fb9e6" stop-opacity="0.61"/><stop offset="0.87" stop-color="#71b2e3" stop-opacity="0.63"/></linearGradient><filter id="filter" x="0" y="0" width="389.28" height="318.72" filterUnits="userSpaceOnUse"><feOffset dx="7" dy="7" input="SourceAlpha"/><feGaussianBlur stdDeviation="20" result="blur"/><feFlood flood-color="#84b3d1"/><feComposite operator="in" in2="blur"/><feComposite in="SourceGraphic"/></filter></defs><path d="M121.78,251.52h21.14v56.75a6.08,6.08,0,0,1-.41,2.23,11,11,0,0,1-3.19,4.45,11.3,11.3,0,0,1-10.15,2.14,10.13,10.13,0,0,1-6-4.28,8.07,8.07,0,0,1-1.34-4.49Z" fill="url(#Degradado_sin_nombre_13)"/><path d="M234.94,251.52h21.15v56.75a6.08,6.08,0,0,1-.41,2.23,11,11,0,0,1-3.19,4.45,11.3,11.3,0,0,1-10.15,2.14,10.13,10.13,0,0,1-6.05-4.28,8.08,8.08,0,0,1-1.35-4.49Z" fill="url(#Degradado_sin_nombre_13-2)"/><path d="M160.15,251.52H181.9v28.6c-1.89,4.91-5.5,7.26-10.43,7.67-6.08-.18-9.85-2.84-11.32-8Z" fill="#6baadd" opacity="0.75"/><path d="M197.93,251.52h21.75V289.3c-1,6.13-5.66,9.1-10.87,9.62a11.28,11.28,0,0,1-9.72-5.95,9.7,9.7,0,0,1-1.16-4.72Z" fill="url(#Degradado_sin_nombre_17)"/><rect x="160.15" y="298.92" width="21.03" height="53.47" rx="10.51" fill="url(#Degradado_sin_nombre_15)"/><rect x="197.55" y="309.14" width="21.03" height="21.03" rx="10.51" fill="url(#Degradado_sin_nombre_18)"/><path d="M96.74,114.41C100.06,78.77,118,57.53,153.05,53.1c30.67-.24,51.25,14.53,60.84,45.63,25.16-9.68,48.41-9.73,68.91,4,21.83,12.29,35.33,30.17,39,54.65,3.54,42.83-15.58,72.75-55.13,91a85.09,85.09,0,0,1-13.31,3.09l-145.42-1.67c-29.19-9-47.22-26.27-53-52.77a74.06,74.06,0,0,1,13.61-61.34A67.52,67.52,0,0,1,96.74,114.41Z" fill="#fdfdfd" opacity="0.79" filter="url(#filter)" style="isolation:isolate"/><path d="M96.74,114.41C100.06,78.77,118,57.53,153.05,53.1c30.67-.24,51.25,14.53,60.84,45.63,25.16-9.68,48.41-9.73,68.91,4,21.83,12.29,35.33,30.17,39,54.65,3.54,42.83-15.58,72.75-55.13,91a85.09,85.09,0,0,1-13.31,3.09l-145.42-1.67c-29.19-9-47.22-26.27-53-52.77a74.06,74.06,0,0,1,13.61-61.34A67.52,67.52,0,0,1,96.74,114.41Z" fill="none" stroke="#fff" stroke-width="4" style="isolation:isolate"/></svg>