<svg id="Capa_1" data-name="Capa 1" xmlns="http://www.w3.org/2000/svg" xmlns:xlink="http://www.w3.org/1999/xlink" viewBox="0 0 389.28 318.72"><defs><filter id="filter" x="0" y="0" width="389.28" height="318.72" filterUnits="userSpaceOnUse"><feOffset dx="7" dy="7" input="SourceAlpha"/><feGaussianBlur stdDeviation="20" result="blur"/><feFlood flood-color="#fcd49b"/><feComposite operator="in" in2="blur"/><feComposite in="SourceGraphic"/></filter></defs><path d="M96.72,114.39C100,78.75,118,57.51,153,53.08c30.67-.24,51.24,14.53,60.83,45.63,25.17-9.68,48.42-9.73,68.91,4,21.83,12.29,35.33,30.17,39,54.65,3.54,42.83-15.58,72.75-55.13,91a85.09,85.09,0,0,1-13.31,3.09l-145.43-1.67c-29.18-9-47.21-26.27-53-52.77a74.06,74.06,0,0,1,13.61-61.34A67.45,67.45,0,0,1,96.72,114.39Z" fill="#fdfdfd" opacity="0.79" filter="url(#filter)" style="isolation:isolate"/><path d="M96.72,114.39C100,78.75,118,57.51,153,53.08c30.67-.24,51.24,14.53,60.83,45.63,25.17-9.68,48.42-9.73,68.91,4,21.83,12.29,35.33,30.17,39,54.65,3.54,42.83-15.58,72.75-55.13,91a85.09,85.09,0,0,1-13.31,3.09l-145.43-1.67c-29.18-9-47.21-26.27-53-52.77a74.06,74.06,0,0,1,13.61-61.34A67.45,67.45,0,0,1,96.72,114.39Z" fill="none" stroke="#fff" stroke-width="4" style="isolation:isolate"/></svg>