<svg id="Capa_1" data-name="Capa 1" xmlns="http://www.w3.org/2000/svg" xmlns:xlink="http://www.w3.org/1999/xlink" viewBox="0 0 389.04 319.29"><defs><linearGradient id="Degradado_sin_nombre_13" x1="180.7" y1="142.75" x2="295.41" y2="38.2" gradientUnits="userSpaceOnUse"><stop offset="0" stop-color="#f08568"/><stop offset="0.29" stop-color="#f29166"/><stop offset="0.33" stop-color="#f29366"/><stop offset="0.57" stop-color="#f39665"/><stop offset="0.77" stop-color="#f5a161"/><stop offset="0.96" stop-color="#f8b35b"/><stop offset="1" stop-color="#f9b859"/></linearGradient><filter id="filter" x="0" y="0.57" width="389.04" height="318.72" filterUnits="userSpaceOnUse"><feOffset dx="7" dy="7" input="SourceAlpha"/><feGaussianBlur stdDeviation="20" result="blur"/><feFlood flood-color="#b78543"/><feComposite operator="in" in2="blur"/><feComposite in="SourceGraphic"/></filter></defs><circle cx="239.58" cy="89.09" r="89.09" fill="url(#Degradado_sin_nombre_13)"/><path d="M96.56,115.12c3.32-35.64,21.27-56.88,56.31-61.31,30.67-.24,51.24,14.52,60.84,45.62,25.16-9.68,48.41-9.73,68.91,4,21.83,12.3,35.33,30.18,39,54.66,3.54,42.83-15.58,72.75-55.13,91a85.09,85.09,0,0,1-13.31,3.09l-145.42-1.67c-29.19-9-47.22-26.28-53-52.77a74.06,74.06,0,0,1,13.61-61.34A67.52,67.52,0,0,1,96.56,115.12Z" fill="#fdfdfd" opacity="0.79" filter="url(#filter)" style="isolation:isolate"/><path d="M96.56,115.12c3.32-35.64,21.27-56.88,56.31-61.31,30.67-.24,51.24,14.52,60.84,45.62,25.16-9.68,48.41-9.73,68.91,4,21.83,12.3,35.33,30.18,39,54.66,3.54,42.83-15.58,72.75-55.13,91a85.09,85.09,0,0,1-13.31,3.09l-145.42-1.67c-29.19-9-47.22-26.28-53-52.77a74.06,74.06,0,0,1,13.61-61.34A67.52,67.52,0,0,1,96.56,115.12Z" fill="none" stroke="#fff" stroke-width="4" style="isolation:isolate"/></svg>