<svg id="Icon_ray" xmlns="http://www.w3.org/2000/svg" xmlns:xlink="http://www.w3.org/1999/xlink" viewBox="0 0 389.28 347.61"><defs><linearGradient id="Degradado_sin_nombre_5" x1="188.09" y1="305.5" x2="188.85" y2="265.68" gradientUnits="userSpaceOnUse"><stop offset="0" stop-color="#fab852"/><stop offset="0.21" stop-color="#f7b454"/><stop offset="0.41" stop-color="#efa95a"/><stop offset="0.61" stop-color="#e09663"/><stop offset="0.8" stop-color="#cc7c71"/><stop offset="0.98" stop-color="#b35a82"/><stop offset="1" stop-color="#b05684"/></linearGradient><filter id="filter" x="0" y="0" width="389.28" height="318.72" filterUnits="userSpaceOnUse"><feOffset dx="7" dy="7" input="SourceAlpha"/><feGaussianBlur stdDeviation="20" result="blur"/><feFlood flood-color="#84b3d1"/><feComposite operator="in" in2="blur"/><feComposite in="SourceGraphic"/></filter></defs><polygon points="171.43 251.61 149.57 284.4 186.16 284.4 173.33 347.61 227.75 267.06 191.17 266.54 195.46 250.95 171.43 251.61" fill="url(#Degradado_sin_nombre_5)"/><path d="M96.73,114.5c3.32-35.64,21.28-56.88,56.32-61.31,30.66-.24,51.24,14.53,60.83,45.63,25.16-9.68,48.41-9.73,68.91,4,21.83,12.3,35.33,30.17,39,54.65,3.54,42.83-15.57,72.75-55.13,91a83.71,83.71,0,0,1-13.31,3.09L107.9,250c-29.19-9-47.21-26.28-53-52.78a74.09,74.09,0,0,1,13.61-61.34A67.52,67.52,0,0,1,96.73,114.5Z" fill="#fdfdfd" opacity="0.79" filter="url(#filter)" style="isolation:isolate"/><path d="M96.73,114.5c3.32-35.64,21.28-56.88,56.32-61.31,30.66-.24,51.24,14.53,60.83,45.63,25.16-9.68,48.41-9.73,68.91,4,21.83,12.3,35.33,30.17,39,54.65,3.54,42.83-15.57,72.75-55.13,91a83.71,83.71,0,0,1-13.31,3.09L107.9,250c-29.19-9-47.21-26.28-53-52.78a74.09,74.09,0,0,1,13.61-61.34A67.52,67.52,0,0,1,96.73,114.5Z" fill="none" stroke="#fff" stroke-width="4" style="isolation:isolate"/></svg>