<svg xmlns="http://www.w3.org/2000/svg" xmlns:xlink="http://www.w3.org/1999/xlink" viewBox="0 0 682.08 528.38"><defs><linearGradient id="Degradado_sin_nombre_2" x1="352.23" y1="517.29" x2="350.43" y2="91.45" gradientUnits="userSpaceOnUse"><stop offset="0" stop-color="#fff" stop-opacity="0"/><stop offset="0.04" stop-color="#e7f2fb" stop-opacity="0.08"/><stop offset="0.1" stop-color="#c6e1f5" stop-opacity="0.2"/><stop offset="0.17" stop-color="#aed4f1" stop-opacity="0.28"/><stop offset="0.24" stop-color="#a0cdef" stop-opacity="0.33"/><stop offset="0.3" stop-color="#9bcaee" stop-opacity="0.35"/><stop offset="0.47" stop-color="#9bcaee" stop-opacity="0.56"/><stop offset="0.69" stop-color="#9bcaee" stop-opacity="0.8"/><stop offset="0.85" stop-color="#9bcaee" stop-opacity="0.94"/><stop offset="0.94" stop-color="#9bcaee"/></linearGradient><linearGradient id="Degradado_sin_nombre_13" x1="295.49" y1="447.36" x2="296.22" y2="387.08" gradientUnits="userSpaceOnUse"><stop offset="0.13" stop-color="#d9e7f7" stop-opacity="0.53"/><stop offset="0.22" stop-color="#c3dcf3" stop-opacity="0.63"/><stop offset="0.4" stop-color="#9fcaec" stop-opacity="0.79"/><stop offset="0.58" stop-color="#86bde7" stop-opacity="0.91"/><stop offset="0.73" stop-color="#76b5e4" stop-opacity="0.98"/><stop offset="0.87" stop-color="#71b2e3"/></linearGradient><linearGradient id="Degradado_sin_nombre_13-2" x1="408.66" y1="447.36" x2="409.38" y2="387.08" xlink:href="#Degradado_sin_nombre_13"/><linearGradient id="Degradado_sin_nombre_17" x1="372.36" y1="428.6" x2="372.36" y2="398.55" gradientUnits="userSpaceOnUse"><stop offset="0.13" stop-color="#d9e7f7" stop-opacity="0.96"/><stop offset="0.22" stop-color="#c4dcf3" stop-opacity="0.97"/><stop offset="0.4" stop-color="#a0caec" stop-opacity="0.98"/><stop offset="0.57" stop-color="#86bde7" stop-opacity="0.99"/><stop offset="0.73" stop-color="#76b5e4"/><stop offset="0.87" stop-color="#71b2e3"/></linearGradient><linearGradient id="Degradado_sin_nombre_15" x1="333.93" y1="482.87" x2="334.52" y2="434.11" gradientUnits="userSpaceOnUse"><stop offset="0.13" stop-color="#d9e7f7" stop-opacity="0.1"/><stop offset="0.2" stop-color="#c8dff4" stop-opacity="0.24"/><stop offset="0.32" stop-color="#aed1ef" stop-opacity="0.47"/><stop offset="0.45" stop-color="#98c6eb" stop-opacity="0.66"/><stop offset="0.57" stop-color="#87bde7" stop-opacity="0.81"/><stop offset="0.68" stop-color="#7bb7e5" stop-opacity="0.91"/><stop offset="0.78" stop-color="#74b3e3" stop-opacity="0.98"/><stop offset="0.87" stop-color="#71b2e3"/></linearGradient><linearGradient id="Degradado_sin_nombre_18" x1="371.5" y1="462.22" x2="371.73" y2="443.04" gradientUnits="userSpaceOnUse"><stop offset="0.12" stop-color="#d9e7f7" stop-opacity="0.5"/><stop offset="0.36" stop-color="#a6cded" stop-opacity="0.56"/><stop offset="0.63" stop-color="#7fb9e6" stop-opacity="0.61"/><stop offset="0.87" stop-color="#71b2e3" stop-opacity="0.63"/></linearGradient><filter id="filter" x="163.56" y="133.08" width="389.28" height="318.72" filterUnits="userSpaceOnUse"><feOffset dx="7" dy="7" input="SourceAlpha"/><feGaussianBlur stdDeviation="20" result="blur"/><feFlood flood-color="#84b3d1"/><feComposite operator="in" in2="blur"/><feComposite in="SourceGraphic"/></filter><filter id="filter-2" x="346.56" y="0" width="335.52" height="282" filterUnits="userSpaceOnUse"><feOffset dx="6" dy="6" input="SourceAlpha"/><feGaussianBlur stdDeviation="25" result="blur-2"/><feFlood flood-color="#84b3d1"/><feComposite operator="in" in2="blur-2"/><feComposite in="SourceGraphic"/></filter><filter id="filter-3" x="0" y="94.8" width="327.12" height="262.8" filterUnits="userSpaceOnUse"><feOffset dx="-20" dy="6" input="SourceAlpha"/><feGaussianBlur stdDeviation="25" result="blur-3"/><feFlood flood-color="#84b3d1"/><feComposite operator="in" in2="blur-3"/><feComposite in="SourceGraphic"/></filter></defs><g id="Background"><circle cx="351.24" cy="283.94" r="244.44" fill="url(#Degradado_sin_nombre_2)"/></g><g id="Rain"><path d="M285.33,384.58h21.15v56.75a6.29,6.29,0,0,1-.41,2.23,11,11,0,0,1-3.19,4.45,11.31,11.31,0,0,1-10.15,2.14,10.13,10.13,0,0,1-6.06-4.28,8.12,8.12,0,0,1-1.34-4.49Z" fill="url(#Degradado_sin_nombre_13)"/><path d="M398.5,384.58h21.15v56.75a6.09,6.09,0,0,1-.42,2.23A10.85,10.85,0,0,1,416,448a11.28,11.28,0,0,1-10.14,2.14,10.13,10.13,0,0,1-6.06-4.28,8,8,0,0,1-1.34-4.49Z" fill="url(#Degradado_sin_nombre_13-2)"/><path d="M323.71,384.58h21.74v28.6c-1.88,4.91-5.5,7.26-10.43,7.67-6.07-.18-9.85-2.84-11.31-8Z" fill="#6baadd" opacity="0.75"/><path d="M361.49,384.58h21.74v37.78c-1,6.13-5.66,9.1-10.87,9.62a11.26,11.26,0,0,1-9.71-6,9.7,9.7,0,0,1-1.16-4.72Z" fill="url(#Degradado_sin_nombre_17)"/><rect x="323.71" y="431.98" width="21.03" height="53.47" rx="10.51" fill="url(#Degradado_sin_nombre_15)"/><rect x="361.1" y="442.2" width="21.03" height="21.03" rx="10.51" fill="url(#Degradado_sin_nombre_18)"/></g><g id="Cloud_Border_C"><path d="M260.29,247.47c3.32-35.64,21.28-56.88,56.32-61.31,30.66-.24,51.24,14.53,60.83,45.63,25.17-9.68,48.41-9.73,68.91,4,21.83,12.29,35.33,30.17,39,54.65,3.54,42.83-15.57,72.75-55.13,91a84.68,84.68,0,0,1-13.3,3.09l-145.43-1.66c-29.19-9-47.21-26.28-53-52.78a74.05,74.05,0,0,1,13.6-61.34A67.52,67.52,0,0,1,260.29,247.47Z" fill="#fdfdfd" opacity="0.79" filter="url(#filter)" style="isolation:isolate"/><path d="M260.29,247.47c3.32-35.64,21.28-56.88,56.32-61.31,30.66-.24,51.24,14.53,60.83,45.63,25.17-9.68,48.41-9.73,68.91,4,21.83,12.29,35.33,30.17,39,54.65,3.54,42.83-15.57,72.75-55.13,91a84.68,84.68,0,0,1-13.3,3.09l-145.43-1.66c-29.19-9-47.21-26.28-53-52.78a74.05,74.05,0,0,1,13.6-61.34A67.52,67.52,0,0,1,260.29,247.47Z" fill="none" stroke="#fff" stroke-width="4" style="isolation:isolate"/></g><g id="Cloud_R"><path d="M470.2,93.72c4.07-10.9,10.3-18.52,19.06-22.27a31.42,31.42,0,0,1,23.24-.13q18.76,6.92,20.91,24.06s0,0,0,0c31.51-3.93,55.4,4.52,65.34,35.64h0c6.6,27.58-.78,49.44-24.48,64.64h0c-23.68,8.82-43.92,6.25-60.83-7.37h0l-51.14-1.66c-24-.78-44.18-19.13-46.37-43.08q-.09-1-.15-2.07h0c1.61-16.18,8.43-28.59,19.75-37.77a43.53,43.53,0,0,1,25.36-9.55l9.29-.44A0,0,0,0,0,470.2,93.72Z" fill="#fff" opacity="0.79" filter="url(#filter-2)"/></g><g id="Cloud_Border_R"><path d="M469.61,93.08C473.74,82,480.06,74.27,489,70.46c7.49-3.21,15.95-2.95,23.6-.13q19,7,21.23,24.44s0,0,0,0c32-4,56.26,4.6,66.35,36.2h0c6.7,28-.79,50.2-24.86,65.64h0c-24,9-44.6,6.35-61.77-7.48h0l-51.93-1.69c-24.41-.79-44.87-19.42-47.08-43.75-.06-.69-.12-1.39-.16-2.1h0c1.63-16.43,8.57-29,20.06-38.36a44.12,44.12,0,0,1,25.75-9.69l9.44-.45A0,0,0,0,0,469.61,93.08Z" fill="none" stroke="#fff" stroke-width="5"/></g><g id="Cloud_L"><path d="M272,205.65c-9.22-19.05-27.65-22.74-51.68-17.11-8.88-19.67-21.63-26.45-37.07-24.24-19.89,2.38-30.64,14.33-33.15,34.93-25.39-3.94-43.82,3.8-53.7,25.9-4.83,20.42,3.26,36.3,21.86,48.48a37.72,37.72,0,0,0,11.17,2.85H225c8.45-14.36,20.3-24.68,36.6-29.7A149.49,149.49,0,0,1,272,205.65Z" fill="#fff" opacity="0.79" filter="url(#filter-3)"/></g><g id="Cloud_Border_L"><path d="M272,207.43c-9.22-19.05-27.65-24.52-51.68-18.89-8.88-19.67-21.63-26.45-37.07-24.24-19.89,2.38-30.64,14.33-33.15,34.93-25.39-3.94-43.82,3.8-53.7,25.9-4.83,20.42,3.26,36.3,21.86,48.48a37.72,37.72,0,0,0,11.17,2.85H225c8.45-14.36,20.3-24.68,36.6-29.7C262.33,232.46,265.58,219.25,272,207.43Z" fill="none" stroke="#fff" stroke-width="3"/></g></svg>