<svg xmlns="http://www.w3.org/2000/svg" xmlns:xlink="http://www.w3.org/1999/xlink" viewBox="0 0 667.2 529.81"><defs><linearGradient id="Degradado_sin_nombre_6" x1="337.35" y1="518.72" x2="335.55" y2="92.88" gradientUnits="userSpaceOnUse"><stop offset="0" stop-color="#fff" stop-opacity="0"/><stop offset="0.04" stop-color="#e7f2fb" stop-opacity="0.08"/><stop offset="0.1" stop-color="#c6e1f5" stop-opacity="0.2"/><stop offset="0.17" stop-color="#aed4f1" stop-opacity="0.28"/><stop offset="0.24" stop-color="#a0cdef" stop-opacity="0.33"/><stop offset="0.3" stop-color="#9bcaee" stop-opacity="0.35"/><stop offset="0.58" stop-color="#8ab4d2" stop-opacity="0.68"/><stop offset="0.81" stop-color="#7ea5be" stop-opacity="0.91"/><stop offset="0.94" stop-color="#799fb7"/></linearGradient><linearGradient id="Degradado_sin_nombre_5" x1="336.77" y1="438.47" x2="337.54" y2="398.65" gradientUnits="userSpaceOnUse"><stop offset="0" stop-color="#fab852"/><stop offset="0.21" stop-color="#f7b454"/><stop offset="0.41" stop-color="#efa95a"/><stop offset="0.61" stop-color="#e09663"/><stop offset="0.8" stop-color="#cc7c71"/><stop offset="0.98" stop-color="#b35a82"/><stop offset="1" stop-color="#b05684"/></linearGradient><filter id="filter" x="148.68" y="133.08" width="389.28" height="318.72" filterUnits="userSpaceOnUse"><feOffset dx="7" dy="7" input="SourceAlpha"/><feGaussianBlur stdDeviation="20" result="blur"/><feFlood flood-color="#84b3d1"/><feComposite operator="in" in2="blur"/><feComposite in="SourceGraphic"/></filter><filter id="filter-2" x="331.68" y="0" width="335.52" height="282" filterUnits="userSpaceOnUse"><feOffset dx="6" dy="6" input="SourceAlpha"/><feGaussianBlur stdDeviation="25" result="blur-2"/><feFlood flood-color="#84b3d1"/><feComposite operator="in" in2="blur-2"/><feComposite in="SourceGraphic"/></filter><filter id="filter-3" x="0" y="94.8" width="327.36" height="262.8" filterUnits="userSpaceOnUse"><feOffset dx="-5" dy="6" input="SourceAlpha"/><feGaussianBlur stdDeviation="25" result="blur-3"/><feFlood flood-color="#84b3d1"/><feComposite operator="in" in2="blur-3"/><feComposite in="SourceGraphic"/></filter></defs><g id="Background"><circle cx="336.36" cy="285.37" r="244.44" fill="url(#Degradado_sin_nombre_6)"/></g><g id="Ray"><polygon points="320.11 384.58 298.25 417.37 334.85 417.37 322.01 480.58 376.43 400.02 339.85 399.51 344.14 383.92 320.11 384.58" fill="url(#Degradado_sin_nombre_5)"/></g><g id="Cloud_Border_C"><path d="M245.41,247.47c3.32-35.64,21.28-56.88,56.32-61.31,30.66-.24,51.24,14.53,60.83,45.63,25.17-9.68,48.41-9.73,68.91,4,21.83,12.29,35.33,30.17,39,54.65,3.54,42.83-15.57,72.75-55.13,91a84.68,84.68,0,0,1-13.3,3.09l-145.43-1.66c-29.19-9-47.21-26.28-53-52.78a74.05,74.05,0,0,1,13.6-61.34A67.52,67.52,0,0,1,245.41,247.47Z" fill="#fdfdfd" opacity="0.79" filter="url(#filter)" style="isolation:isolate"/><path d="M245.41,247.47c3.32-35.64,21.28-56.88,56.32-61.31,30.66-.24,51.24,14.53,60.83,45.63,25.17-9.68,48.41-9.73,68.91,4,21.83,12.29,35.33,30.17,39,54.65,3.54,42.83-15.57,72.75-55.13,91a84.68,84.68,0,0,1-13.3,3.09l-145.43-1.66c-29.19-9-47.21-26.28-53-52.78a74.05,74.05,0,0,1,13.6-61.34A67.52,67.52,0,0,1,245.41,247.47Z" fill="none" stroke="#fff" stroke-width="4" style="isolation:isolate"/></g><g id="Cloud_R"><path d="M455.32,93.72c4.07-10.9,10.3-18.52,19.06-22.27a31.42,31.42,0,0,1,23.24-.13q18.76,6.92,20.91,24.06s0,0,0,0c31.51-3.93,55.4,4.52,65.34,35.64h0c6.6,27.58-.78,49.44-24.48,64.64h0c-23.68,8.82-43.92,6.25-60.83-7.37h0l-51.14-1.66c-24-.78-44.18-19.13-46.37-43.08q-.09-1-.15-2.07h0c1.61-16.18,8.43-28.59,19.75-37.77A43.53,43.53,0,0,1,446,94.17l9.29-.44A0,0,0,0,0,455.32,93.72Z" fill="#fff" opacity="0.79" filter="url(#filter-2)"/></g><g id="Cloud_Border_R"><path d="M454.73,93.08c4.13-11.07,10.45-18.81,19.36-22.62,7.49-3.21,16-2.95,23.6-.13q19.05,7,21.23,24.44s0,0,0,0c32-4,56.26,4.6,66.35,36.2h0c6.7,28-.79,50.2-24.86,65.64h0c-24,9-44.6,6.35-61.77-7.48h0l-51.93-1.69c-24.41-.79-44.87-19.42-47.08-43.75-.06-.69-.12-1.39-.16-2.1h0c1.63-16.43,8.57-29,20.06-38.36a44.12,44.12,0,0,1,25.75-9.69l9.44-.45A0,0,0,0,0,454.73,93.08Z" fill="none" stroke="#fff" stroke-width="5"/></g><g id="Cloud_L"><path d="M257.14,205.65c-9.22-19.05-27.65-22.74-51.68-17.11-8.88-19.67-21.63-26.45-37.07-24.24-19.89,2.38-30.64,14.33-33.15,34.93-25.39-3.94-43.82,3.8-53.7,25.9-4.83,20.42,3.26,36.3,21.86,48.48a37.72,37.72,0,0,0,11.17,2.85h95.52c8.45-14.36,20.3-24.68,36.6-29.7A149.49,149.49,0,0,1,257.14,205.65Z" fill="#fff" opacity="0.79" filter="url(#filter-3)"/></g><g id="Cloud_Border_L"><path d="M257.14,207.43c-9.22-19.05-27.65-24.52-51.68-18.89-8.88-19.67-21.63-26.45-37.07-24.24-19.89,2.38-30.64,14.33-33.15,34.93-25.39-3.94-43.82,3.8-53.7,25.9-4.83,20.42,3.26,36.3,21.86,48.48a37.72,37.72,0,0,0,11.17,2.85h95.52c8.45-14.36,20.3-24.68,36.6-29.7C247.45,232.46,250.7,219.25,257.14,207.43Z" fill="none" stroke="#fff" stroke-width="3"/></g></svg>