<svg xmlns="http://www.w3.org/2000/svg" xmlns:xlink="http://www.w3.org/1999/xlink" viewBox="0 0 488.89 531.14"><defs><linearGradient id="Degradado_sin_nombre_17" x1="93.23" y1="523.09" x2="171.68" y2="351.8" gradientUnits="userSpaceOnUse"><stop offset="0" stop-color="#f7d17a" stop-opacity="0"/><stop offset="0.07" stop-color="#f7d17a" stop-opacity="0.03"/><stop offset="0.19" stop-color="#f7d37b" stop-opacity="0.12"/><stop offset="0.33" stop-color="#f8d57c" stop-opacity="0.27"/><stop offset="0.5" stop-color="#f8d77e" stop-opacity="0.48"/><stop offset="0.68" stop-color="#f8db80" stop-opacity="0.74"/><stop offset="0.84" stop-color="#f9de82"/></linearGradient><linearGradient id="Degradado_sin_nombre_18" x1="141.68" y1="528.59" x2="225.31" y2="345.98" xlink:href="#Degradado_sin_nombre_17"/><linearGradient id="Degradado_sin_nombre_19" x1="207.81" y1="526.89" x2="288.04" y2="351.7" xlink:href="#Degradado_sin_nombre_17"/><linearGradient id="Degradado_sin_nombre_8" x1="245.43" y1="477.8" x2="243.63" y2="51.95" gradientUnits="userSpaceOnUse"><stop offset="0" stop-color="#fff" stop-opacity="0"/><stop offset="0.05" stop-color="#fef3e3" stop-opacity="0.1"/><stop offset="0.11" stop-color="#fde5c3" stop-opacity="0.21"/><stop offset="0.17" stop-color="#fcdbac" stop-opacity="0.29"/><stop offset="0.24" stop-color="#fbd59f" stop-opacity="0.33"/><stop offset="0.3" stop-color="#fbd39a" stop-opacity="0.35"/><stop offset="0.49" stop-color="#fbd39a" stop-opacity="0.58"/><stop offset="0.7" stop-color="#fbd39a" stop-opacity="0.81"/><stop offset="0.85" stop-color="#fbd39a" stop-opacity="0.95"/><stop offset="0.94" stop-color="#fbd39a"/></linearGradient><linearGradient id="Degradado_sin_nombre_13" x1="227.04" y1="235.6" x2="341.74" y2="131.06" gradientUnits="userSpaceOnUse"><stop offset="0" stop-color="#f08568"/><stop offset="0.29" stop-color="#f29166"/><stop offset="0.33" stop-color="#f29366"/><stop offset="0.57" stop-color="#f39665"/><stop offset="0.77" stop-color="#f5a161"/><stop offset="0.96" stop-color="#f8b35b"/><stop offset="1" stop-color="#f9b859"/></linearGradient><filter id="filter" x="46.2" y="93.58" width="389.28" height="318.72" filterUnits="userSpaceOnUse"><feOffset dx="7" dy="7" input="SourceAlpha"/><feGaussianBlur stdDeviation="20" result="blur"/><feFlood flood-color="#b78543"/><feComposite operator="in" in2="blur"/><feComposite in="SourceGraphic"/></filter></defs><g id="Rays"><polygon points="160.47 347.46 186.85 347.46 103.44 527.34 79.68 527.34 160.47 347.46" fill="url(#Degradado_sin_nombre_17)"/><polygon points="194.46 347.46 254.81 347.46 165.23 527.34 114.61 527.34 194.46 347.46" fill="url(#Degradado_sin_nombre_18)"/><polygon points="275.96 347.46 304 347.46 217.98 531.14 200.16 531.14 193.74 531.14 275.96 347.46" fill="url(#Degradado_sin_nombre_19)"/></g><g id="Background"><circle cx="244.44" cy="244.44" r="244.44" fill="url(#Degradado_sin_nombre_8)"/></g><g id="Sun"><circle cx="285.91" cy="181.94" r="89.09" fill="url(#Degradado_sin_nombre_13)"/></g><g id="Cloud"><path d="M142.89,208c3.32-35.63,21.28-56.88,56.32-61.3,30.66-.24,51.24,14.52,60.83,45.62,25.17-9.68,48.41-9.73,68.91,4,21.83,12.3,35.33,30.18,39,54.65,3.54,42.84-15.57,72.75-55.13,91a82.63,82.63,0,0,1-13.31,3.09l-145.42-1.66c-29.19-9-47.21-26.28-53-52.78a74.1,74.1,0,0,1,13.61-61.34A67.52,67.52,0,0,1,142.89,208Z" fill="#fdfdfd" opacity="0.79" filter="url(#filter)" style="isolation:isolate"/></g><g id="Cloud_Border"><path d="M142.89,208c3.32-35.63,21.28-56.88,56.32-61.3,30.66-.24,51.24,14.52,60.83,45.62,25.17-9.68,48.41-9.73,68.91,4,21.83,12.3,35.33,30.18,39,54.65,3.54,42.84-15.57,72.75-55.13,91a82.63,82.63,0,0,1-13.31,3.09l-145.42-1.66c-29.19-9-47.21-26.28-53-52.78a74.1,74.1,0,0,1,13.61-61.34A67.52,67.52,0,0,1,142.89,208Z" fill="none" stroke="#fff" stroke-width="4" style="isolation:isolate"/></g></svg>